<svg xmlns="http://www.w3.org/2000/svg" width="264" height="259" viewBox="0 0 264 259" version="1.1"><path d="M 121.637 2.506 C 119.921 4.222, 119.773 4.679, 117.518 15.246 C 116.609 19.506, 115.189 23.669, 114.361 24.496 C 113.534 25.323, 113.284 26, 113.806 26 C 114.328 26, 115.205 25.438, 115.755 24.750 C 116.895 23.325, 120 11.371, 120 8.409 C 120 5.500, 122.821 2, 125.165 2 C 127.639 2, 138.370 10.370, 142.394 15.439 C 143.986 17.444, 146.236 19.567, 147.394 20.157 C 150.396 21.685, 137.417 8.542, 131.866 4.432 C 126.829 0.702, 123.978 0.165, 121.637 2.506 M 179.881 16.600 L 173.281 23.200 167.891 22.149 C 159.879 20.587, 155.842 20.305, 152.500 21.073 C 150.165 21.610, 150.831 21.799, 155.500 21.925 C 158.800 22.014, 163.525 22.542, 166 23.098 C 173.340 24.747, 174.119 24.450, 180.565 17.545 C 189.590 7.877, 190.451 8.287, 197.170 25.452 C 199.316 30.933, 200.015 31.701, 206 35.155 C 233.780 51.183, 254.481 79.402, 260.440 109.368 C 261.301 113.696, 262.323 122.471, 262.712 128.868 C 263.304 138.617, 263.535 139.771, 264.135 136 C 265.064 130.168, 265.016 114.999, 264.085 120 C 263.504 123.118, 263.361 122.783, 262.772 116.937 C 261.364 102.969, 254.155 83.453, 245.923 71.322 C 235.703 56.262, 220.610 41.961, 207.151 34.583 C 200.534 30.955, 200.362 30.757, 197.718 23.694 C 194.001 13.764, 191.537 10, 188.755 10 C 187.287 10, 184.145 12.337, 179.881 16.600 M 101.419 29.887 C 93.460 33.661, 81.588 41.017, 83.513 40.982 C 84.056 40.972, 86.449 39.643, 88.831 38.028 C 92.630 35.454, 102.447 30.434, 110 27.204 C 111.375 26.616, 111.825 26.117, 111 26.095 C 110.175 26.073, 105.864 27.779, 101.419 29.887 M 57.223 35.557 C 54.003 37.812, 54.248 44.883, 57.893 54.870 L 60.786 62.797 56.797 68.649 C 51.756 76.043, 47.942 83.579, 44.727 92.500 C 41.315 101.968, 39.858 105, 38.718 105 C 38.190 105, 33.720 102.670, 28.785 99.822 C 14.749 91.721, 6.961 90.622, 4.178 96.351 C 2.788 99.214, 0.511 111.844, 1.252 112.585 C 1.490 112.823, 2.456 109.076, 3.401 104.259 C 4.345 99.441, 5.504 95.109, 5.978 94.631 C 6.451 94.153, 8.783 93.789, 11.161 93.822 C 15.355 93.880, 18.563 95.274, 33.711 103.627 C 38.573 106.308, 39.034 106.389, 40.590 104.835 C 41.508 103.919, 43.542 99.419, 45.111 94.835 C 48.107 86.083, 53.743 74.574, 57.517 69.500 C 62.199 63.207, 62.239 62.785, 58.999 53.999 C 57.350 49.524, 56 43.885, 56 41.467 C 56 34.798, 57.710 34.335, 70.632 37.509 C 76.457 38.940, 81.406 39.927, 81.630 39.703 C 82.100 39.234, 63.066 34, 60.889 34 C 60.095 34, 58.445 34.701, 57.223 35.557 M 129.358 80.904 C 118.525 83.661, 110.123 94.607, 109.224 107.135 C 108.823 112.727, 109.138 114.612, 111.233 119.135 C 117.744 133.188, 132.593 139.834, 145.073 134.280 C 155.020 129.853, 161.949 117.658, 160.667 106.834 C 158.686 90.110, 143.289 77.358, 129.358 80.904 M 129 82.131 C 119.252 85.023, 111.957 94.260, 110.455 105.613 C 107.535 127.683, 133.665 143.629, 150.284 129.919 C 161.550 120.627, 162.584 102.166, 152.509 90.193 C 147.090 83.753, 136.164 80.006, 129 82.131 M 213.158 84.273 C 204.763 86.958, 198.354 97.610, 198.668 108.357 C 199.426 134.330, 229.461 142.182, 241.292 119.500 C 244.606 113.148, 244.257 103.024, 240.488 96.130 C 234.643 85.441, 223.976 80.813, 213.158 84.273 M 212.500 85.896 C 204.068 89.800, 199.675 97.466, 199.836 107.996 C 200.180 130.574, 224.689 140.472, 237.660 123.271 C 251.681 104.679, 232.731 76.529, 212.500 85.896 M 1.079 117.583 C 1.127 118.748, 1.364 118.985, 1.683 118.188 C 1.972 117.466, 1.936 116.603, 1.604 116.271 C 1.272 115.939, 1.036 116.529, 1.079 117.583 M 1.117 138.267 C 0.985 142.515, 5.259 163.281, 7.095 167.309 C 8.414 170.204, 13.540 172.430, 16.597 171.436 C 20.875 170.044, 38.972 161.639, 38.566 161.233 C 38.171 160.838, 31.533 163.687, 23.500 167.698 C 9.835 174.522, 6.898 170.721, 2.094 140 C 1.347 135.226, 1.218 134.997, 1.117 138.267 M 262.554 143.250 C 262.344 143.938, 261.464 148.550, 260.600 153.500 C 256.939 174.465, 243.984 198.444, 228.923 212.131 C 205.359 233.546, 174.907 245.151, 146.114 243.687 C 137.708 243.259, 136.436 243.353, 140 244.138 C 142.475 244.682, 149.675 244.893, 156 244.607 C 172.644 243.852, 185.924 240.092, 203.931 231.036 C 234.754 215.534, 256.806 185.198, 262.331 150.694 C 263.097 145.912, 263.546 142, 263.330 142 C 263.114 142, 262.765 142.563, 262.554 143.250 M 41.602 166.219 C 43.576 173.109, 50.004 186.661, 54.537 193.490 L 58.128 198.901 53.564 208.086 C 51.054 213.138, 49.053 218.223, 49.118 219.386 C 49.222 221.238, 49.320 221.191, 49.907 219 C 50.275 217.625, 52.522 212.576, 54.898 207.781 L 59.220 199.061 57.143 195.781 C 52.894 189.069, 44.280 171.340, 43.024 166.724 C 42.310 164.098, 41.357 161.721, 40.907 161.443 C 40.457 161.165, 40.770 163.314, 41.602 166.219 M 71 220.104 C 60.367 223.890, 54.333 224.886, 51.364 223.345 C 49.900 222.586, 48.503 222.164, 48.258 222.408 C 48.014 222.653, 49.213 223.576, 50.923 224.460 C 54.390 226.253, 56.101 225.978, 70.283 221.352 L 78.067 218.814 82.289 222.274 C 84.612 224.177, 90.559 228.016, 95.506 230.806 C 108.376 238.065, 107.757 237.316, 108.870 246.978 C 109.652 253.775, 110.279 255.808, 112.033 257.228 C 114.560 259.274, 117.610 259.448, 120.584 257.715 C 123.447 256.046, 135 245.724, 135 244.834 C 135 244.437, 133.537 245.484, 131.750 247.160 C 124.721 253.752, 118.709 258, 116.410 258 C 115.085 258, 114 257.550, 114 257 C 114 256.450, 113.477 256.112, 112.838 256.250 C 111.593 256.518, 110.607 252.823, 109.566 243.991 C 109.209 240.962, 108.598 238.017, 108.208 237.448 C 107.819 236.879, 102.925 233.841, 97.334 230.697 C 91.742 227.554, 85.287 223.411, 82.989 221.491 C 78.195 217.486, 78.316 217.500, 71 220.104" stroke="none" fill="#fcfcfc" fill-rule="evenodd"/><path d="M 124.813 0.683 C 125.534 0.972, 126.397 0.936, 126.729 0.604 C 127.061 0.272, 126.471 0.036, 125.417 0.079 C 124.252 0.127, 124.015 0.364, 124.813 0.683 M 122.288 2.364 C 122.405 2.989, 121.954 3.393, 121.286 3.262 C 120.537 3.115, 120.315 3.657, 120.706 4.676 C 121.106 5.719, 120.943 6.083, 120.263 5.663 C 119.587 5.245, 119.372 5.705, 119.684 6.901 C 120.348 9.437, 118.080 20.168, 117.020 19.512 C 116.561 19.229, 116.423 19.900, 116.711 21.004 C 117.429 23.749, 115.216 26.203, 112.734 25.415 C 111.490 25.021, 110.988 25.172, 111.389 25.821 C 112.178 27.097, 108.457 28.400, 106.854 27.410 C 106.081 26.932, 105.962 27.130, 106.502 28.003 C 107.106 28.980, 106.762 29.171, 105.155 28.751 C 103.968 28.440, 103.208 28.527, 103.464 28.943 C 104.191 30.119, 99.344 32.331, 97.941 31.463 C 97.217 31.016, 96.943 31.099, 97.291 31.662 C 98.092 32.958, 92.312 36.311, 90.843 35.403 C 90.130 34.962, 89.963 35.131, 90.405 35.845 C 91.052 36.894, 89.806 37.464, 87.676 37.094 C 87.222 37.015, 87.122 37.389, 87.454 37.925 C 87.785 38.461, 87.052 39.437, 85.826 40.093 C 84.342 40.887, 83.480 40.939, 83.250 40.250 C 83.060 39.679, 81.955 39.460, 80.796 39.764 C 79.452 40.115, 78.926 39.929, 79.345 39.251 C 79.744 38.605, 79.315 38.363, 78.251 38.637 C 77.288 38.885, 72.350 38.006, 67.278 36.685 C 62.206 35.363, 58.314 34.699, 58.628 35.208 C 58.943 35.717, 58.398 35.991, 57.416 35.817 C 55.859 35.540, 55.666 36.188, 55.898 40.905 C 56.045 43.878, 57.465 49.837, 59.054 54.147 C 61.662 61.220, 62.083 65.787, 60.008 64.505 C 59.578 64.239, 59.288 64.804, 59.363 65.761 C 59.439 66.723, 58.908 67.377, 58.176 67.225 C 57.447 67.074, 57.149 67.431, 57.512 68.019 C 58.317 69.321, 56.121 72.193, 54.898 71.437 C 54.417 71.140, 54.319 71.668, 54.681 72.612 C 55.164 73.868, 54.985 74.109, 54.015 73.510 C 53.147 72.973, 52.930 73.078, 53.386 73.816 C 54.284 75.268, 51.215 81.251, 49.969 80.481 C 49.430 80.148, 49.306 80.635, 49.681 81.612 C 50.164 82.868, 49.985 83.109, 49.015 82.510 C 48.131 81.963, 47.930 82.077, 48.410 82.854 C 49.421 84.490, 48.084 88.170, 46.773 87.360 C 46.126 86.960, 45.980 87.158, 46.410 87.854 C 47.421 89.490, 46.084 93.170, 44.773 92.360 C 44.110 91.950, 43.981 92.160, 44.440 92.902 C 45.374 94.414, 44.240 99.266, 43.115 98.571 C 42.661 98.290, 42.482 99.072, 42.719 100.308 C 43.289 103.292, 39.892 106.418, 37.057 105.518 C 35.910 105.154, 35.226 104.444, 35.537 103.939 C 35.850 103.434, 35.334 103.318, 34.388 103.681 C 33.308 104.096, 32.914 103.948, 33.325 103.283 C 33.697 102.682, 33.228 102.285, 32.239 102.363 C 31.283 102.438, 30.607 101.954, 30.738 101.286 C 30.885 100.537, 30.343 100.315, 29.324 100.706 C 28.297 101.100, 27.919 100.940, 28.325 100.283 C 28.697 99.682, 28.228 99.285, 27.239 99.363 C 26.283 99.438, 25.607 98.954, 25.738 98.286 C 25.885 97.537, 25.343 97.315, 24.324 97.706 C 23.223 98.128, 22.911 97.953, 23.388 97.181 C 23.870 96.401, 23.544 96.238, 22.388 96.681 C 21.231 97.125, 20.905 96.962, 21.388 96.181 C 21.870 95.401, 21.544 95.238, 20.388 95.681 C 19.292 96.102, 18.912 95.951, 19.337 95.263 C 19.768 94.566, 19.241 94.386, 17.845 94.751 C 16.569 95.084, 15.934 94.916, 16.291 94.338 C 16.649 93.758, 15.597 93.494, 13.697 93.689 C 11.117 93.952, 10.886 93.840, 12.500 93.106 C 14.027 92.411, 13.459 92.232, 10.093 92.348 C 7.033 92.454, 5.613 92.958, 5.447 94 C 4.288 101.238, 1.607 112.685, 0.890 113.450 C 0.401 113.973, 0.007 115.323, 0.015 116.450 C 0.027 118.063, 0.224 118.195, 0.936 117.069 C 1.836 115.647, 1.636 124.426, 0.549 134 C 0.220 136.901, 0.335 137.790, 0.873 136.500 C 1.923 133.984, 3.450 146.515, 2.461 149.524 C 1.979 150.990, 2.065 151.143, 2.796 150.119 C 3.530 149.088, 3.955 149.776, 4.472 152.832 C 4.852 155.084, 4.832 157.463, 4.427 158.118 C 3.963 158.869, 4.117 159.045, 4.845 158.595 C 5.578 158.143, 6 158.649, 6 159.981 C 6 161.135, 6.881 163.806, 7.957 165.916 C 9.034 168.026, 9.664 170.003, 9.358 170.308 C 9.052 170.614, 9.859 170.631, 11.151 170.346 C 12.674 170.009, 13.066 170.138, 12.265 170.713 C 11.453 171.296, 12.220 171.600, 14.500 171.600 C 16.562 171.600, 17.469 171.281, 16.735 170.815 C 15.903 170.286, 16.161 170.026, 17.527 170.015 C 18.643 170.007, 20.576 169.285, 21.824 168.411 C 23.072 167.537, 24.770 167.082, 25.598 167.399 C 26.426 167.717, 26.849 167.565, 26.537 167.061 C 25.803 165.872, 29.627 164.651, 31.146 165.590 C 31.851 166.026, 32.040 165.874, 31.627 165.205 C 30.769 163.817, 34.649 161.651, 36.630 162.412 C 37.458 162.729, 37.836 162.544, 37.493 161.989 C 36.623 160.580, 38.346 160.764, 39.947 162.250 C 41.036 163.261, 41.140 163.232, 40.492 162.095 C 39.997 161.227, 40.079 160.931, 40.708 161.320 C 42.201 162.242, 44.343 170.636, 43.453 172.076 C 43.018 172.780, 43.104 173.054, 43.653 172.715 C 44.916 171.934, 53.248 188.764, 52.362 190.310 C 51.986 190.964, 52.036 191.178, 52.472 190.784 C 53.608 189.759, 57.273 194.749, 56.410 196.145 C 55.988 196.828, 56.125 197.041, 56.741 196.660 C 57.318 196.303, 58.061 196.717, 58.392 197.578 C 59.127 199.494, 55.111 209.187, 53.894 208.435 C 53.415 208.138, 53.319 208.668, 53.681 209.612 C 54.164 210.868, 53.985 211.109, 53.015 210.510 C 52.143 209.970, 51.930 210.078, 52.392 210.825 C 53.215 212.156, 51.256 216.276, 50.131 215.581 C 49.708 215.319, 49.537 216.544, 49.752 218.303 C 50.052 220.761, 49.898 221.153, 49.086 220 C 48.165 218.691, 48.029 218.709, 48.015 220.143 C 48.007 221.047, 48.704 222.056, 49.563 222.386 C 50.423 222.716, 50.898 223.355, 50.619 223.807 C 50.340 224.258, 51.999 224.415, 54.306 224.154 C 56.613 223.894, 59.920 223.640, 61.655 223.591 C 63.389 223.541, 64.557 223.092, 64.248 222.592 C 63.940 222.093, 64.658 221.939, 65.845 222.249 C 67.228 222.611, 67.766 222.431, 67.345 221.749 C 66.924 221.067, 67.462 220.888, 68.845 221.249 C 70.228 221.611, 70.766 221.431, 70.345 220.749 C 69.924 220.067, 70.462 219.888, 71.845 220.249 C 73.032 220.560, 73.780 220.453, 73.508 220.013 C 73.236 219.573, 74.183 218.920, 75.613 218.561 C 78.182 217.916, 83.266 220.203, 82.744 221.769 C 82.610 222.171, 82.849 222.594, 83.275 222.708 C 85.318 223.257, 89.841 226.449, 89.456 227.071 C 89.217 227.458, 89.804 227.712, 90.761 227.637 C 91.717 227.562, 92.393 228.046, 92.262 228.714 C 92.115 229.463, 92.657 229.685, 93.676 229.294 C 94.873 228.835, 95.103 229.025, 94.510 229.985 C 93.970 230.857, 94.078 231.070, 94.825 230.608 C 96.272 229.714, 100.247 231.791, 99.476 233.039 C 99.148 233.569, 99.643 233.691, 100.612 233.319 C 101.769 232.875, 102.095 233.038, 101.612 233.819 C 101.130 234.599, 101.456 234.762, 102.612 234.319 C 103.868 233.836, 104.109 234.015, 103.510 234.985 C 102.990 235.826, 103.079 236.069, 103.755 235.651 C 105.415 234.625, 108.177 236.096, 107.569 237.681 C 107.269 238.464, 107.435 238.849, 107.938 238.538 C 108.441 238.227, 109.159 240.567, 109.534 243.736 C 110.647 253.151, 111.573 256.523, 112.960 256.209 C 113.667 256.049, 114.022 256.499, 113.750 257.209 C 113.407 258.102, 114.268 258.500, 116.544 258.500 C 118.353 258.500, 119.652 258.319, 119.430 258.097 C 118.809 257.476, 125.203 253.007, 126.004 253.502 C 126.392 253.742, 127.787 252.715, 129.105 251.219 L 131.500 248.500 128.959 250.500 C 127.561 251.600, 128.236 250.663, 130.459 248.418 C 132.681 246.173, 134.838 244.512, 135.250 244.727 C 135.662 244.942, 136 244.622, 136 244.016 C 136 243.241, 139.195 243.105, 146.750 243.559 C 157.508 244.204, 163.838 243.541, 176.764 240.415 C 180.210 239.581, 183.542 239.217, 184.169 239.604 C 184.850 240.025, 185.035 239.866, 184.629 239.209 C 183.853 237.954, 190.715 235.706, 192.311 236.692 C 192.860 237.031, 193.008 236.822, 192.640 236.227 C 191.866 234.975, 195.476 233.558, 197.016 234.510 C 197.584 234.861, 197.926 234.553, 197.775 233.824 C 197.609 233.028, 198.376 232.530, 199.700 232.574 C 200.918 232.615, 201.626 232.204, 201.286 231.654 C 200.919 231.061, 201.363 230.926, 202.388 231.319 C 203.544 231.762, 203.870 231.599, 203.388 230.819 C 202.905 230.038, 203.231 229.875, 204.388 230.319 C 205.544 230.762, 205.870 230.599, 205.388 229.819 C 204.905 229.038, 205.231 228.875, 206.388 229.319 C 207.544 229.762, 207.870 229.599, 207.388 228.819 C 206.905 228.038, 207.231 227.875, 208.388 228.319 C 209.332 228.681, 209.859 228.581, 209.561 228.098 C 208.843 226.937, 213.770 223.740, 215.053 224.533 C 215.601 224.872, 215.926 224.553, 215.775 223.824 C 215.623 223.092, 216.277 222.561, 217.239 222.637 C 218.196 222.712, 218.746 222.398, 218.461 221.937 C 217.903 221.034, 221.967 218.422, 223.324 218.812 C 223.778 218.943, 223.906 218.657, 223.610 218.177 C 223.313 217.698, 224.673 215.887, 226.632 214.153 C 230.416 210.802, 231.578 210.214, 230.387 212.250 C 229.985 212.938, 230.634 212.643, 231.828 211.595 C 234.420 209.322, 234.745 208.178, 232.250 210.110 C 230.794 211.238, 230.816 211.094, 232.384 209.256 C 233.420 208.041, 234.668 207.295, 235.158 207.598 C 235.649 207.901, 235.929 207.778, 235.783 207.324 C 235.485 206.406, 238.443 201.873, 239.090 202.256 C 239.315 202.390, 239.403 202.328, 239.285 202.119 C 238.700 201.080, 241.246 198.034, 242.205 198.627 C 242.859 199.031, 243.027 198.852, 242.617 198.190 C 241.708 196.718, 246.939 188.844, 248.277 189.671 C 248.866 190.035, 249.008 189.822, 248.608 189.175 C 247.714 187.728, 249.791 183.753, 251.039 184.524 C 251.569 184.852, 251.691 184.357, 251.319 183.388 C 250.836 182.132, 251.015 181.891, 251.985 182.490 C 252.822 183.008, 253.069 182.920, 252.656 182.252 C 251.861 180.966, 257.955 163.854, 258.982 164.489 C 259.383 164.737, 259.486 163.761, 259.211 162.321 C 258.834 160.351, 259.032 159.902, 260.010 160.506 C 260.873 161.040, 261.066 160.916, 260.585 160.137 C 259.814 158.890, 261.810 144.186, 262.978 142.500 C 263.845 141.250, 262.453 120.485, 260.982 112.717 C 260.379 109.536, 260.166 105.936, 260.509 104.717 C 260.998 102.974, 260.906 102.821, 260.081 104 C 259.206 105.250, 259.028 105.145, 259.015 103.372 C 259.007 102.202, 258.297 99.562, 257.438 97.505 C 256.579 95.449, 256.123 93.121, 256.426 92.331 C 256.729 91.542, 256.576 91.144, 256.086 91.447 C 254.963 92.141, 252.799 86.134, 253.666 84.731 C 254.069 84.080, 253.814 83.997, 252.985 84.510 C 252.015 85.109, 251.836 84.868, 252.319 83.612 C 252.762 82.456, 252.599 82.130, 251.819 82.612 C 251.038 83.095, 250.875 82.769, 251.319 81.612 C 251.762 80.456, 251.599 80.130, 250.819 80.612 C 250.038 81.095, 249.875 80.769, 250.319 79.612 C 250.691 78.643, 250.569 78.148, 250.039 78.476 C 248.856 79.207, 246.692 75.308, 247.528 73.955 C 247.869 73.402, 247.553 73.074, 246.824 73.225 C 246.096 73.376, 245.560 72.730, 245.632 71.789 C 245.705 70.848, 245.255 70.173, 244.632 70.289 C 244.010 70.405, 243.562 69.717, 243.637 68.761 C 243.712 67.804, 243.426 67.237, 243 67.500 C 242.059 68.081, 239.817 65.550, 240.215 64.355 C 240.372 63.885, 240.232 63.500, 239.904 63.500 C 238.484 63.500, 235.951 60.571, 236.387 59.434 C 236.650 58.749, 235.995 57.401, 234.933 56.439 C 233.870 55.477, 233 55.073, 233 55.541 C 233 56.009, 231.447 54.887, 229.549 53.048 C 227.652 51.208, 226.189 49.208, 226.299 48.602 C 226.410 47.996, 225.881 47.631, 225.125 47.792 C 223.410 48.155, 219.851 45.050, 220.598 43.842 C 220.901 43.351, 220.778 43.015, 220.324 43.094 C 218.531 43.405, 217.390 42.903, 214.768 40.648 C 213.265 39.355, 212.365 37.934, 212.768 37.489 C 213.170 37.044, 212.938 37.002, 212.252 37.397 C 210.810 38.227, 204.862 35.033, 205.606 33.828 C 205.880 33.385, 205.332 33.319, 204.388 33.681 C 203.132 34.164, 202.891 33.985, 203.490 33.015 C 204.046 32.117, 203.924 31.929, 203.111 32.432 C 202.452 32.839, 201.284 32.651, 200.516 32.013 C 198.515 30.353, 193.707 17.283, 194.578 15.874 C 195.071 15.077, 194.877 14.958, 193.985 15.510 C 193.025 16.103, 192.835 15.873, 193.294 14.676 C 193.685 13.657, 193.463 13.115, 192.714 13.262 C 192.046 13.393, 191.554 12.761, 191.621 11.857 C 191.869 8.495, 185.687 11.793, 180 18.057 C 174.179 24.469, 173.380 24.756, 166 23.098 C 163.525 22.542, 158.800 22.014, 155.500 21.925 C 150.522 21.791, 150.011 21.629, 152.500 20.972 C 155.245 20.248, 155.142 20.190, 151.292 20.284 C 147.351 20.380, 146.656 19.946, 140.332 13.443 C 136.618 9.624, 133.562 6.051, 133.540 5.501 C 133.518 4.952, 132.600 4.502, 131.500 4.501 C 130.241 4.500, 129.624 3.944, 129.833 3 C 130.017 2.175, 129.882 1.785, 129.533 2.133 C 129.185 2.482, 127.364 2.421, 125.488 1.997 C 123.123 1.464, 122.141 1.577, 122.288 2.364 M 187.813 9.683 C 188.534 9.972, 189.397 9.936, 189.729 9.604 C 190.061 9.272, 189.471 9.036, 188.417 9.079 C 187.252 9.127, 187.015 9.364, 187.813 9.683 M 54.252 41.500 C 54.263 43.700, 54.468 44.482, 54.707 43.238 C 54.946 41.994, 54.937 40.194, 54.687 39.238 C 54.437 38.282, 54.241 39.300, 54.252 41.500 M 233 56.378 C 233 56.585, 233.787 57.373, 234.750 58.128 C 236.336 59.371, 236.371 59.336, 235.128 57.750 C 233.821 56.084, 233 55.555, 233 56.378 M 131.500 80.439 C 130.950 80.651, 129.244 81.103, 127.709 81.442 C 125.988 81.822, 125.185 82.490, 125.614 83.184 C 126.039 83.873, 125.859 84.031, 125.148 83.591 C 123.630 82.653, 117.776 86.829, 118.643 88.231 C 119.031 88.859, 118.842 89.021, 118.192 88.619 C 116.724 87.712, 111.562 95.482, 112.560 97.097 C 113.024 97.847, 112.890 98.050, 112.209 97.629 C 110.777 96.744, 109.013 103.063, 109.006 109.101 C 108.999 114.350, 110.760 120.266, 112.086 119.447 C 112.576 119.144, 112.681 119.668, 112.319 120.612 C 111.904 121.692, 112.052 122.086, 112.717 121.675 C 113.318 121.303, 113.715 121.772, 113.637 122.761 C 113.562 123.717, 114.063 124.387, 114.750 124.250 C 115.438 124.112, 115.904 124.337, 115.788 124.750 C 115.326 126.379, 118.219 130.130, 119.545 129.621 C 120.310 129.328, 121.245 129.587, 121.622 130.198 C 122.064 130.913, 121.809 131.045, 120.905 130.568 C 120.132 130.160, 120.625 130.769, 122 131.921 C 123.375 133.072, 125.288 133.828, 126.251 133.601 C 127.215 133.373, 127.747 133.600, 127.435 134.105 C 126.868 135.022, 131.718 136.383, 135.500 136.367 C 139.529 136.351, 145.040 134.873, 144.476 133.961 C 144.149 133.431, 144.643 133.310, 145.612 133.681 C 146.692 134.096, 147.086 133.948, 146.675 133.283 C 146.303 132.682, 146.772 132.285, 147.761 132.363 C 148.723 132.439, 149.377 131.908, 149.225 131.176 C 149.074 130.447, 149.351 130.099, 149.842 130.402 C 150.778 130.981, 153.866 128.099, 153.845 126.667 C 153.839 126.208, 154.168 125.533, 154.577 125.167 C 154.986 124.800, 154.954 125.132, 154.506 125.905 C 153.956 126.853, 154.068 127.076, 154.853 126.591 C 156.710 125.443, 159.197 119.955, 158.584 118.358 C 158.275 117.554, 158.439 117.153, 158.947 117.467 C 159.456 117.782, 160.171 116.041, 160.537 113.600 C 161.356 108.142, 160.251 100.727, 158.757 101.650 C 158.125 102.041, 157.984 101.835, 158.410 101.146 C 159.349 99.627, 158.128 95.803, 156.939 96.537 C 156.434 96.850, 156.318 96.334, 156.681 95.388 C 157.164 94.132, 156.985 93.891, 156.015 94.490 C 155.117 95.046, 154.929 94.924, 155.432 94.111 C 156.356 92.614, 154.145 89.792, 152.732 90.666 C 152.151 91.025, 151.987 90.829, 152.362 90.224 C 152.978 89.227, 151.414 87.552, 149.833 87.515 C 149.467 87.507, 148.792 87.090, 148.333 86.590 C 147.840 86.051, 148.073 86.012, 148.905 86.494 C 149.797 87.012, 150.072 86.926, 149.660 86.258 C 147.752 83.171, 135.005 79.087, 131.500 80.439 M 133.269 81.693 C 134.242 81.947, 135.592 81.930, 136.269 81.656 C 136.946 81.382, 136.150 81.175, 134.500 81.195 C 132.850 81.215, 132.296 81.439, 133.269 81.693 M 216.442 83.907 C 216.751 84.405, 216.032 84.560, 214.845 84.249 C 213.563 83.914, 212.933 84.083, 213.294 84.667 C 213.628 85.206, 212.910 85.615, 211.700 85.574 C 210.376 85.530, 209.609 86.028, 209.775 86.824 C 209.926 87.553, 209.592 87.866, 209.033 87.520 C 207.708 86.701, 202.701 91.708, 203.520 93.033 C 203.866 93.592, 203.553 93.926, 202.824 93.775 C 202.028 93.609, 201.530 94.376, 201.574 95.700 C 201.615 96.910, 201.206 97.628, 200.667 97.294 C 200.083 96.933, 199.914 97.563, 200.249 98.845 C 200.610 100.226, 200.431 100.766, 199.751 100.346 C 199.032 99.902, 198.891 100.953, 199.316 103.595 C 199.780 106.483, 199.668 107.109, 198.887 106 C 198.094 104.873, 197.977 105.340, 198.416 107.875 C 198.737 109.731, 199 112.120, 199 113.184 C 199 114.391, 199.434 114.850, 200.155 114.405 C 200.873 113.960, 201.037 114.130, 200.590 114.854 C 199.651 116.373, 200.872 120.197, 202.061 119.463 C 202.565 119.151, 202.697 119.626, 202.354 120.519 C 201.583 122.528, 208.826 130.281, 210.776 129.533 C 211.506 129.252, 211.856 129.424, 211.553 129.914 C 211.250 130.404, 212.419 131.299, 214.150 131.903 C 218.118 133.286, 226.343 133.365, 225.507 132.011 C 225.165 131.458, 225.539 131.270, 226.358 131.584 C 227.753 132.119, 234 129.530, 234 128.415 C 234 128.122, 233.480 128.203, 232.845 128.595 C 232.146 129.028, 231.962 128.871, 232.378 128.198 C 232.755 127.587, 233.690 127.328, 234.455 127.621 C 235.983 128.208, 238.362 124.696, 237.215 123.548 C 236.822 123.155, 237.175 122.983, 238 123.167 C 238.920 123.371, 239.447 122.827, 239.363 121.761 C 239.285 120.772, 239.682 120.303, 240.283 120.675 C 240.948 121.086, 241.096 120.692, 240.681 119.612 C 240.301 118.621, 240.428 118.147, 240.982 118.489 C 242.287 119.295, 243.460 114.565, 243.460 108.500 C 243.460 102.435, 242.287 97.705, 240.982 98.511 C 240.428 98.853, 240.301 98.379, 240.681 97.388 C 241.096 96.308, 240.948 95.914, 240.283 96.325 C 239.682 96.697, 239.285 96.228, 239.363 95.239 C 239.438 94.283, 238.954 93.607, 238.286 93.738 C 237.618 93.869, 237.308 93.361, 237.597 92.608 C 238.224 90.973, 233.210 86.752, 231.728 87.668 C 231.158 88.021, 230.980 87.842, 231.333 87.271 C 232.154 85.941, 226.518 83.562, 224.906 84.558 C 224.132 85.037, 223.950 84.890, 224.405 84.155 C 224.905 83.345, 223.736 83, 220.500 83 C 217.960 83, 216.134 83.408, 216.442 83.907 M 6.750 93.662 C 7.438 93.940, 8.563 93.940, 9.250 93.662 C 9.938 93.385, 9.375 93.158, 8 93.158 C 6.625 93.158, 6.063 93.385, 6.750 93.662 M 159.079 107.583 C 159.127 108.748, 159.364 108.985, 159.683 108.188 C 159.972 107.466, 159.936 106.603, 159.604 106.271 C 159.272 105.939, 159.036 106.529, 159.079 107.583 M 242.195 108.500 C 242.215 110.150, 242.439 110.704, 242.693 109.731 C 242.947 108.758, 242.930 107.408, 242.656 106.731 C 242.382 106.054, 242.175 106.850, 242.195 108.500 M 263.079 121.583 C 263.127 122.748, 263.364 122.985, 263.683 122.188 C 263.972 121.466, 263.936 120.603, 263.604 120.271 C 263.272 119.939, 263.036 120.529, 263.079 121.583 M 206.500 126 C 207.495 127.100, 208.535 128, 208.810 128 C 209.085 128, 208.495 127.100, 207.500 126 C 206.505 124.900, 205.465 124, 205.190 124 C 204.915 124, 205.505 124.900, 206.500 126 M 76 219.383 C 76 219.594, 76.901 220.002, 78.001 220.290 C 79.102 220.578, 79.751 220.405, 79.442 219.907 C 78.904 219.036, 76 218.594, 76 219.383 M 108.079 245.583 C 108.127 246.748, 108.364 246.985, 108.683 246.188 C 108.972 245.466, 108.936 244.603, 108.604 244.271 C 108.272 243.939, 108.036 244.529, 108.079 245.583" stroke="none" fill="#fcfbf3" fill-rule="evenodd"/></svg>